HIERARCHY
ROOT Hips
{
	OFFSET 0.00000 0.00000 0.00000
	CHANNELS 6 Xposition Yposition Zposition Zrotation Yrotation Xrotation 
	JOINT LHipJoint
	{
		OFFSET 0 0 0
		CHANNELS 3 Zrotation Yrotation Xrotation
		JOINT LeftHip
		{
			OFFSET 1.84395 -1.68683 0.74144
			CHANNELS 3 Zrotation Yrotation Xrotation
			JOINT LeftKnee
			{
				OFFSET 2.27037 -6.23779 0.00000
				CHANNELS 3 Zrotation Yrotation Xrotation
				JOINT LeftAnkle
				{
					OFFSET 2.56918 -7.05877 0.00000
					CHANNELS 3 Zrotation Yrotation Xrotation
					JOINT LeftToe
					{
						OFFSET 0.22276 -0.61202 1.71784
						CHANNELS 3 Zrotation Yrotation Xrotation
						End Site
						{
							OFFSET 0.00000 -0.00000 0.91613
						}
					}
				}
			}
		}
	}
	JOINT RHipJoint
	{
		OFFSET 0 0 0
		CHANNELS 3 Zrotation Yrotation Xrotation
		JOINT RightHip
		{
			OFFSET -1.76833 -1.68684 0.74144
			CHANNELS 3 Zrotation Yrotation Xrotation
			JOINT RightKnee
			{
				OFFSET -2.49360 -6.85110 0.00000
				CHANNELS 3 Zrotation Yrotation Xrotation
				JOINT RightAnkle
				{
					OFFSET -2.55538 -7.02085 0.00000
					CHANNELS 3 Zrotation Yrotation Xrotation
					JOINT RightToe
					{
						OFFSET -0.21516 -0.59115 1.68050
						CHANNELS 3 Zrotation Yrotation Xrotation
						End Site
						{
							OFFSET -0.00000 -0.00000 0.89604
						}
					}
				}
			}
		}
	}
	JOINT lowerback
	{
		OFFSET 0 0 0
		CHANNELS 3 Zrotation Yrotation Xrotation
		JOINT Chest
		{
			OFFSET 0.06382 1.72312 -0.19613
			CHANNELS 3 Zrotation Yrotation Xrotation
			JOINT Chest2
			{
				OFFSET -0.00055 1.73507 0.23859
				CHANNELS 3 Zrotation Yrotation Xrotation
				JOINT lowerneck
				{
					OFFSET 0 0 0
					CHANNELS 3 Zrotation Yrotation Xrotation
					JOINT Neck
					{
						OFFSET 0.03638 1.65562 0.09633
						CHANNELS 3 Zrotation Yrotation Xrotation
						JOINT Head
						{
							OFFSET 0.06388 1.62807 -0.32386
							CHANNELS 3 Zrotation Yrotation Xrotation
							End Site
							{
								OFFSET 0.00995 1.67644 -0.12021
							}
						}
					}
				}
				JOINT LeftCollar
				{
					OFFSET 0 0 0
					CHANNELS 3 Zrotation Yrotation Xrotation
					JOINT LeftShoulder
					{
						OFFSET 3.09648 1.42991 0.28122
CHANNELS 3 Zrotation Xrotation Yrotation
						JOINT LeftElbow
						{
OFFSET 0 -5.118780 -0.000000
CHANNELS 3 Zrotation Xrotation Yrotation
							JOINT LeftWrist
							{
OFFSET 0 -3.599710 0.000000
CHANNELS 3 Zrotation Xrotation Yrotation
								JOINT lhand
								{
									OFFSET 0 0 0
CHANNELS 3 Zrotation Xrotation Yrotation
									JOINT LFingers
									{
OFFSET 0 -0.628770 0.000000
CHANNELS 3 Zrotation Xrotation Yrotation
										End Site
										{
OFFSET 0 -0.506930 0.000000
										}
									}
								}
								JOINT LThumb
								{
OFFSET 0 0.000000 0.000000
CHANNELS 3 Zrotation Xrotation Yrotation
									End Site
									{
OFFSET 0 -0.514670 0.514670
									}
								}
							}
						}
					}
				}
				JOINT RightCollar
				{
					OFFSET 0 0 0
					CHANNELS 3 Zrotation Yrotation Xrotation
					JOINT RightShoulder
					{
						OFFSET -3.33565 1.14597 0.05047
CHANNELS 3 Zrotation Xrotation Yrotation
						JOINT RightElbow
						{
OFFSET 0 -5.490200 0.000000
CHANNELS 3 Zrotation Xrotation Yrotation
							JOINT RightWrist
							{
OFFSET 0 -3.206590 -0.000000
CHANNELS 3 Zrotation Xrotation Yrotation
								JOINT rhand
								{
									OFFSET 0 0 0
CHANNELS 3 Zrotation Xrotation Yrotation
									JOINT RFingers
									{
OFFSET 0 -0.691880 0.000000
CHANNELS 3 Zrotation Xrotation Yrotation
										End Site
										{
OFFSET 0 -0.557810 0.000000
										}
									}
								}
								JOINT RThumb
								{
OFFSET 0 0.000000 0.000000
CHANNELS 3 Zrotation Xrotation Yrotation
									End Site
									{
OFFSET 0 -0.566330 0.566330
									}
								}
							}
						}
					}
				}
			}
		}
	}
}
MOTION
Frames: 6
Frame Time: 0.008333333333333333
0.555632 17.705453 8.643885 -9.829192 4.615052 19.290417 0.000000 0.000000 0.000000 -12.745542 -56.639504 17.910308 0.069686 -1.703110 -4.685810 -3.084927 47.432578 -58.332298 1.465516 7.650556 21.657622 0.000000 0.000000 0.000000 22.188647 30.432872 -3.097541 -0.007292 -0.551208 1.514715 2.105894 -29.212083 -28.380699 -0.547253 -4.739279 13.166407 7.753936 3.270314 10.532369 -1.103446 5.492554 -5.035697 -6.596247 2.045660 -10.570395 -7.985365 -12.147717 -14.224516 20.513638 -18.279743 10.631919 5.676210 -7.551319 8.450271 0.000000 0.000000 0.000000 33.378773 -16.767711 -92.317596 121.913221 -55.778192 87.245933 18.965223 -27.117805 17.636806 0.000000 0.000000 0.000000 -7.125000 0.000000 0.000000 -5.927901 11.474878 -4.656054 0.000000 0.000000 0.000000 -12.088474 -72.539110 41.988378 -13.222492 -21.612327 -2.534667 -37.321161 53.299716 72.308353 0.000000 0.000000 0.000000 7.125000 0.000000 0.000000 141.950712 -72.274758 154.308400
0.611932 17.696434 8.636301 -10.113477 4.345169 19.248124 0.000000 0.000000 0.000000 -12.887436 -56.350757 18.141960 0.071342 -1.722838 -4.740288 -3.241994 47.595439 -58.264868 1.446678 7.602805 21.514344 0.000000 0.000000 0.000000 22.322155 29.821646 -3.408922 -0.009084 -0.616494 1.693990 2.022955 -28.585349 -27.602340 -0.492798 -4.499880 12.487662 8.395078 3.098319 10.837092 -0.833612 5.411750 -4.963020 -6.670015 1.966576 -10.662417 -8.073017 -12.219771 -14.568911 20.378957 -18.380598 10.897033 5.611663 -7.573852 8.607190 0.000000 0.000000 0.000000 33.389930 -17.392625 -92.345543 121.503320 -55.895858 86.906749 18.582513 -26.484684 18.505649 0.000000 0.000000 0.000000 -7.125000 0.000000 0.000000 -6.223432 10.620728 -5.000380 0.000000 0.000000 0.000000 -21.231709 -71.445365 36.921992 -13.966604 -22.686596 -2.815354 -34.901396 48.392128 72.010666 0.000000 0.000000 0.000000 7.125000 0.000000 0.000000 139.631632 -72.691854 152.260885
0.642019 17.689987 8.642879 -9.954427 3.808356 19.439374 0.000000 0.000000 0.000000 -13.103557 -55.976978 17.957436 0.075362 -1.771193 -4.873720 -2.942856 47.364077 -58.523188 1.555350 7.870662 22.322128 0.000000 0.000000 0.000000 21.823286 30.214570 -3.644049 -0.011162 -0.682217 1.874750 1.988685 -28.459161 -27.599632 -0.512512 -4.588656 12.738954 8.189213 2.911319 10.732371 -0.617404 5.135884 -4.911483 -6.260257 1.861786 -10.623119 -7.586391 -12.188751 -15.075764 19.491244 -18.326786 11.330022 5.227542 -7.540617 8.677352 0.000000 0.000000 0.000000 33.499772 -17.535568 -92.506042 121.907136 -55.779978 87.240903 20.101928 -27.115488 17.224566 0.000000 0.000000 0.000000 -7.125000 0.000000 0.000000 -5.155429 11.766592 -4.012459 0.000000 0.000000 0.000000 -28.783552 -69.755831 33.657513 -14.888249 -23.989994 -3.180482 -32.292537 44.159273 71.047327 0.000000 0.000000 0.000000 7.125000 0.000000 0.000000 136.411209 -73.588684 149.055121
0.652072 17.692829 8.663808 -9.407435 3.166948 19.773079 0.000000 0.000000 0.000000 -13.690852 -55.578063 17.802285 0.083861 -1.867874 -5.140581 -2.277531 46.791214 -59.029196 1.714261 8.243648 23.456546 0.000000 0.000000 0.000000 20.869154 30.984920 -3.808061 -0.012490 -0.722521 1.985505 2.020674 -28.657376 -27.791202 -0.503899 -4.550416 12.630482 7.253949 2.587705 10.362447 -0.268176 4.568841 -5.077077 -5.238897 1.659988 -10.768554 -8.399314 -12.099110 -14.432266 19.414807 -18.102703 11.636734 5.399371 -7.503122 8.696259 0.000000 0.000000 0.000000 33.091279 -16.525529 -92.370647 122.035650 -55.742606 87.347180 19.698080 -26.800839 16.890057 0.000000 0.000000 0.000000 -7.125000 0.000000 0.000000 -5.405592 12.165161 -4.164138 0.000000 0.000000 0.000000 -34.250035 -67.772703 33.376813 -15.956907 -25.461612 -3.627720 -32.206278 40.563613 70.478766 0.000000 0.000000 0.000000 7.125000 0.000000 0.000000 135.793480 -74.036905 148.185495
0.680960 17.675299 8.658319 -10.442743 3.087848 19.437338 0.000000 0.000000 0.000000 -13.007903 -55.104948 18.339152 0.089475 -1.928977 -5.309318 -2.517326 47.017530 -58.873211 1.670923 8.143940 23.152291 0.000000 0.000000 0.000000 22.240945 30.736064 -3.503508 -0.013132 -0.740077 2.033938 1.978651 -28.331571 -27.385069 -0.475309 -4.421449 12.265420 8.714415 2.240001 10.901463 0.298198 4.429427 -4.973799 -5.446472 1.501131 -10.956453 -8.662613 -11.995211 -14.408497 19.109251 -17.891298 11.906346 5.377369 -7.427983 8.737109 0.000000 0.000000 0.000000 32.732747 -16.344222 -92.485159 122.098361 -55.724393 87.398926 18.067491 -27.111394 17.333048 0.000000 0.000000 0.000000 -7.125000 0.000000 0.000000 -6.506749 11.894573 -5.059491 0.000000 0.000000 0.000000 -40.762954 -65.335016 32.162190 -17.514920 -27.530949 -4.323060 -29.740192 35.159426 70.347360 0.000000 0.000000 0.000000 7.125000 0.000000 0.000000 132.971412 -74.199826 145.803498
0.687871 17.670681 8.668607 -10.177575 2.224191 19.770533 0.000000 0.000000 0.000000 -13.074896 -54.474900 17.791662 0.091209 -1.947587 -5.360934 -2.040311 46.571474 -59.195617 1.792353 8.418846 23.993939 0.000000 0.000000 0.000000 21.583959 30.954912 -3.966957 -0.014552 -0.778698 2.140046 1.964738 -28.031109 -26.788619 -0.413766 -4.128725 11.439096 8.578098 2.168668 10.776100 0.345634 4.306990 -5.022545 -5.290025 1.452767 -10.966856 -8.513750 -11.967009 -14.518732 18.506590 -17.806806 12.195293 5.163955 -7.409416 8.754105 0.000000 0.000000 0.000000 32.608034 -16.297292 -92.899239 122.062467 -55.734856 87.369284 18.034300 -26.996838 17.539211 0.000000 0.000000 0.000000 -7.125000 0.000000 0.000000 -6.537568 11.685422 -5.112171 0.000000 0.000000 0.000000 -46.152522 -62.949652 31.815638 -18.974125 -29.386261 -5.018209 -24.773236 29.028211 69.440829 0.000000 0.000000 0.000000 7.125000 0.000000 0.000000 126.004766 -74.792430 139.523078
